<svg version="1.2" xmlns="http://www.w3.org/2000/svg" viewBox="0 0 44 38" width="44" height="38"><defs><linearGradient id="P" gradientUnits="userSpaceOnUse"/><linearGradient id="g1" x2="1" href="#P" gradientTransform="matrix(10.805,8.528,-8.081,10.238,21.277,-3.398)"><stop stop-color="#f2bd27"/><stop offset="1" stop-color="#f28b27"/></linearGradient><linearGradient id="g2" x2="1" href="#P" gradientTransform="matrix(7.691,6.071,-5.752,7.287,11.383,3.342)"><stop stop-color="#f2bd27"/><stop offset="1" stop-color="#f28b27"/></linearGradient><linearGradient id="g3" x2="1" href="#P" gradientTransform="matrix(5.962,4.705,-4.458,5.649,6.954,11.11)"><stop stop-color="#f2bd27"/><stop offset="1" stop-color="#f28b27"/></linearGradient><linearGradient id="g4" x2="1" href="#P" gradientTransform="matrix(7.691,6.071,-5.752,7.287,31.588,3.342)"><stop stop-color="#f2bd27"/><stop offset="1" stop-color="#f28b27"/></linearGradient><linearGradient id="g5" x2="1" href="#P" gradientTransform="matrix(5.962,4.705,-4.458,5.649,36.249,11.11)"><stop stop-color="#f2bd27"/><stop offset="1" stop-color="#f28b27"/></linearGradient><linearGradient id="g6" x2="1" href="#P" gradientTransform="matrix(4.742,11.125,-8.778,3.742,32.53,24.828)"><stop stop-color="#57111f"/><stop offset=".33" stop-color="#8a1c32"/></linearGradient><linearGradient id="g7" x2="1" href="#P" gradientTransform="matrix(-4.333,10.087,-8.129,-3.492,28.809,29.603)"><stop stop-color="#691525"/><stop offset=".33" stop-color="#9b1f37"/></linearGradient><linearGradient id="g8" x2="1" href="#P" gradientTransform="matrix(20.922,16.513,-15.877,20.116,21.05,2.321)"><stop stop-color="#f2bd27"/><stop offset="1" stop-color="#f28b27"/></linearGradient><linearGradient id="g9" x2="1" href="#P" gradientTransform="matrix(14.155,11.172,-10.8,13.683,21.357,8.171)"><stop stop-color="#f2bd27"/><stop offset="1" stop-color="#f28b27"/></linearGradient></defs><style>.a{fill:#fff}.b{fill:url(#g1)}.c{fill:url(#g2)}.d{fill:url(#g3)}.e{fill:url(#g4)}.f{fill:url(#g5)}.g{fill:url(#g6)}.h{fill:url(#g7)}.i{fill:url(#g8)}.j{fill:url(#g9)}</style><g style="display:none"><path class="a" d="m0 0h44v38h-44z"/></g><path class="b" d="m22 1.1l1.7 3 3.9 0.5-2.8 2.4 0.6 3.3-3.4-1.6-3.4 1.6 0.6-3.3-2.8-2.4 3.9-0.5z"/><path class="c" d="m11.9 6.6l1.2 2.1 2.8 0.3-2 1.7 0.4 2.4-2.4-1.1-2.5 1.1 0.5-2.4-2-1.7 2.8-0.3z"/><path class="d" d="m7.4 13.6l0.9 1.7 2.1 0.2-1.5 1.3 0.4 1.8-1.9-0.8-1.9 0.8 0.3-1.8-1.5-1.3 2.1-0.2z"/><path class="e" d="m32.1 6.6l-1.2 2.1-2.8 0.3 2 1.7-0.4 2.4 2.4-1.1 2.5 1.1-0.5-2.4 2-1.7-2.8-0.3z"/><path class="f" d="m36.6 13.6l-0.9 1.7-2.1 0.2 1.5 1.3-0.4 1.8 1.9-0.8 1.9 0.8-0.3-1.8 1.5-1.3-2.1-0.2z"/><path class="g" d="m27.1 26.1l4 8.4-4.4-0.8-2.5 3.2-3.9-8.3z"/><path class="h" d="m23.8 28.6l-4 8.3-2.5-3.3h0.1l-4.5 0.8 4.1-8.3z"/><path class="i" d="m32.6 20.4c0 0.5-0.7 0.9-0.8 1.4-0.1 0.4 0.4 1 0.2 1.4-0.1 0.5-0.9 0.7-1.1 1.1-0.3 0.4 0 1.1-0.4 1.5-0.3 0.3-1.1 0.3-1.5 0.7-0.4 0.3-0.4 1-0.8 1.3-0.4 0.3-1.2 0-1.7 0.3-0.5 0.2-0.7 0.8-1.2 1-0.5 0.1-1.2-0.3-1.7-0.2-0.6 0.1-1.1 0.6-1.6 0.6-0.5 0-1-0.5-1.6-0.6-0.5-0.1-1.2 0.3-1.7 0.2-0.5-0.2-0.7-0.8-1.2-1-0.5-0.3-1.3 0-1.7-0.3-0.4-0.3-0.4-1-0.8-1.3-0.4-0.4-1.2-0.4-1.5-0.7-0.4-0.4-0.1-1.1-0.4-1.5-0.2-0.4-1-0.6-1.1-1.1-0.2-0.4 0.3-1 0.2-1.4-0.1-0.5-0.8-0.9-0.8-1.4 0-0.5 0.7-0.9 0.8-1.3 0.1-0.5-0.4-1.1-0.2-1.5 0.1-0.5 0.9-0.7 1.1-1.1 0.3-0.4 0-1.1 0.4-1.5 0.3-0.3 1.1-0.3 1.5-0.7 0.4-0.3 0.4-1 0.8-1.3 0.4-0.2 1.2 0 1.7-0.2 0.5-0.2 0.7-0.9 1.2-1.1 0.5-0.1 1.2 0.3 1.7 0.2 0.6 0 1.1-0.6 1.6-0.6 0.5 0 1 0.6 1.6 0.6 0.5 0.1 1.2-0.3 1.7-0.2 0.5 0.2 0.7 0.9 1.2 1.1 0.5 0.2 1.3 0 1.7 0.2 0.4 0.3 0.4 1 0.8 1.3 0.4 0.4 1.2 0.4 1.5 0.7 0.4 0.4 0.1 1.1 0.4 1.5 0.2 0.4 1 0.6 1.1 1.1 0.2 0.4-0.3 1-0.2 1.5 0.1 0.4 0.8 0.8 0.8 1.3z"/><path class="a" d="m22 27.2c-4.4 0-7.9-3-7.9-6.8 0-3.8 3.5-6.8 7.9-6.8 4.4 0 7.9 3 7.9 6.8 0 3.8-3.5 6.8-7.9 6.8z"/><path class="j" d="m22 26.6c-3.9 0-7.1-2.8-7.1-6.2 0-3.4 3.2-6.2 7.1-6.2 3.9 0 7.1 2.8 7.1 6.2 0 3.4-3.2 6.2-7.1 6.2z"/><path class="a" d="m26.5 17.9l-5.3 5.7-0.5 0.6-0.7-0.5-2.5-1.8 1.6-1.4 1.4 1.4 3.9-5.3z"/></svg>